# xmcd
#
# Track frame offsets:
#	183
#	14103
#	26443
#	39733
#	53110
#	65693
#	80743
#	93058
#	107675
#	121188
#	134435
#	147870
#	161150
#	174578
#	190800
#	221695
#	245650
#	259020
#	276220
#	291293
#	303585
#
# Disc length: 4358 seconds
#
# Revision: 0
# Processed by: cddbd v1.4PL0 Copyright (c) Steve Scherf et al.
# Submitted via: dBpowerAMP V4.0
#
DISCID=3e110415
DTITLE=John Lee Hooker - Love Blues
DYEAR=1990
DGENRE=Blues
TTITLE0=Louise
TTITLE1=High Priced Woman
TTITLE2=Union Station Blues
TTITLE3=Ground Hog Blues
TTITLE4=Leave My Wife Alone
TTITLE5=Ramblin' By Myself
TTITLE6=Walkin' The Boogie
TTITLE7=Sugar Mama
TTITLE8=Love Blues
TTITLE9=Down At The Landing
TTITLE10=It's My Own Fault Darling
TTITLE11=Woman And Money
TTITLE12=Stella Mae
TTITLE13=Peace Lovin Man
TTITLE14=Let's Go Out Tonight
TTITLE15=I Put My Trust In You
TTITLE16=One Bourbon, One Scotch, One Beer
TTITLE17=You Know, I Know
TTITLE18=I'll Never Trust Your Love Again
TTITLE19=In The Mood
TTITLE20=The Waterfront
EXTD=
EXTT0=
EXTT1=
EXTT2=
EXTT3=
EXTT4=
EXTT5=
EXTT6=
EXTT7=
EXTT8=
EXTT9=
EXTT10=
EXTT11=
EXTT12=
EXTT13=
EXTT14=
EXTT15=
EXTT16=
EXTT17=
EXTT18=
EXTT19=
EXTT20=
PLAYORDER=
